<svg width="258" height="844" viewBox="0 0 258 844" fill="none" xmlns="http://www.w3.org/2000/svg">
<path d="M6.12503 55.6256C45.3688 38.2864 78.4241 41.1563 115.055 63.3377C125.079 69.4071 135.282 79.5993 126.412 91.1281C120.094 99.3406 107.966 109.37 96.786 107.133C86.5266 105.081 64.0248 97.1357 64.1457 84.1545C64.3155 65.9153 92.9969 60.8646 106.298 57.5984C140.808 49.1242 167.075 62.2846 190.353 87.1579" stroke="#854777" stroke-width="3" stroke-linecap="round"/>
<path d="M204.38 65.8257C205.772 73.1393 219.99 102.501 210.687 106.937C199.902 112.081 183.805 108.367 172.073 108.955" stroke="#854777" stroke-width="3" stroke-linecap="round"/>
<path d="M6.12503 505.626C45.3688 488.286 78.4241 491.156 115.055 513.338C125.079 519.407 135.282 529.599 126.412 541.128C120.094 549.341 107.966 559.37 96.786 557.133C86.5266 555.081 64.0248 547.136 64.1457 534.154C64.3155 515.915 92.9969 510.865 106.298 507.598C140.808 499.124 167.075 512.285 190.353 537.158" stroke="#854777" stroke-width="3" stroke-linecap="round"/>
<path d="M204.38 515.826C205.772 523.139 219.99 552.501 210.687 556.937C199.902 562.081 183.805 558.367 172.073 558.955" stroke="#854777" stroke-width="3" stroke-linecap="round"/>
<path d="M53.7538 701.004C96.3752 696.091 127.09 708.639 155.49 740.691C163.261 749.461 169.981 762.222 158.089 770.6C149.619 776.568 135.061 782.547 125.048 777.094C115.86 772.089 96.7291 757.825 100.696 745.464C106.27 728.097 135.159 731.784 148.83 732.612C184.301 734.759 205.479 755.121 220.329 785.781" stroke="#854777" stroke-width="3" stroke-linecap="round"/>
<path d="M240.054 769.572C239.213 776.969 244.078 809.227 233.878 810.703C222.052 812.415 207.783 804.092 196.404 801.172" stroke="#854777" stroke-width="3" stroke-linecap="round"/>
</svg>
