<svg width="50" height="470" viewBox="0 0 50 470" fill="none" xmlns="http://www.w3.org/2000/svg">
<line x1="24" y1="297" x2="24" stroke="#A773C3" stroke-width="2"/>
<path d="M25 309L30.6129 326.275H48.7764L34.0818 336.951L39.6946 354.225L25 343.549L10.3054 354.225L15.9182 336.951L1.22359 326.275H19.3871L25 309Z" fill="#854777"/>
<path d="M25 366L29.4903 379.82H44.0211L32.2654 388.361L36.7557 402.18L25 393.639L13.2443 402.18L17.7346 388.361L5.97887 379.82H20.5097L25 366Z" fill="#854777"/>
<path d="M25 413L28.3677 423.365H39.2658L30.4491 429.771L33.8168 440.135L25 433.729L16.1832 440.135L19.5509 429.771L10.7342 423.365H21.6323L25 413Z" fill="#854777"/>
<path d="M25 450L27.2451 456.91H34.5106L28.6327 461.18L30.8779 468.09L25 463.82L19.1221 468.09L21.3673 461.18L15.4894 456.91H22.7549L25 450Z" fill="#854777"/>
</svg>
