<svg width="255" height="1242" viewBox="0 0 255 1242" fill="none" xmlns="http://www.w3.org/2000/svg">
<path d="M253 61.3217C222.226 31.4271 190.233 22.6327 148.177 30.7041C136.67 32.9126 123.56 38.9244 127.872 52.8168C130.943 62.713 138.83 76.3315 150.091 78.1189C160.424 79.7591 184.285 80.1274 188.682 67.913C194.86 50.7513 169.72 36.0495 158.383 28.3652C128.967 8.42796 99.7645 11.6417 69.2941 26.8769" stroke="#854777" stroke-width="3" stroke-linecap="round"/>
<path d="M63.5533 2C59.7068 8.37421 36.1731 30.9662 43.3542 38.3585C51.6804 46.9295 68.0645 49.0397 78.8622 53.6673" stroke="#854777" stroke-width="3" stroke-linecap="round"/>
<path d="M231.985 486.033C195.27 463.835 162.119 462.469 122.96 479.803C112.245 484.545 100.826 493.354 108.154 505.919C113.375 514.87 124.126 526.363 135.5 525.569C145.937 524.841 169.268 519.827 170.802 506.936C172.958 488.824 145.154 480.16 132.377 475.226C99.2278 462.424 71.4983 472.13 45.2406 493.834" stroke="#854777" stroke-width="3" stroke-linecap="round"/>
<path d="M34.0461 470.889C31.7335 477.965 13.8906 505.276 22.5517 510.861C32.5939 517.338 49.0324 515.705 60.5948 517.783" stroke="#854777" stroke-width="3" stroke-linecap="round"/>
<path d="M230 806.322C199.226 776.427 167.233 767.633 125.177 775.704C113.67 777.913 100.56 783.924 104.872 797.817C107.943 807.713 115.83 821.331 127.091 823.119C137.424 824.759 161.285 825.127 165.682 812.913C171.86 795.751 146.72 781.05 135.383 773.365C105.967 753.428 76.7645 756.642 46.2941 771.877" stroke="#854777" stroke-width="3" stroke-linecap="round"/>
<path d="M40.5533 747C36.7068 753.374 13.1731 775.966 20.3542 783.358C28.6804 791.93 45.0645 794.04 55.8622 798.667" stroke="#854777" stroke-width="3" stroke-linecap="round"/>
<path d="M213.814 1188.89C172.524 1200.54 140.2 1193.06 107.048 1165.95C97.9764 1158.53 89.3057 1147.01 99.7072 1136.84C107.117 1129.6 120.533 1121.37 131.288 1125.15C141.157 1128.63 162.32 1139.65 160.377 1152.49C157.646 1170.52 128.54 1171.5 114.912 1172.86C79.5533 1176.4 55.3958 1159.68 35.8425 1131.79" stroke="#854777" stroke-width="3" stroke-linecap="round"/>
<path d="M18.9581 1150.94C18.6072 1143.5 8.65522 1112.43 18.4884 1109.35C29.8896 1105.77 45.3047 1111.71 57.0037 1112.77" stroke="#854777" stroke-width="3" stroke-linecap="round"/>
</svg>
